<svg xmlns="http://www.w3.org/2000/svg" xmlns:xlink="http://www.w3.org/1999/xlink" width="512" zoomAndPan="magnify" viewBox="0 0 384 383.999986" height="512" preserveAspectRatio="xMidYMid meet" version="1.0"><defs><g/><clipPath id="83c90fa567"><path d="M 52 59 L 325 59 L 325 333 L 52 333 Z M 52 59 " clip-rule="nonzero"/></clipPath><clipPath id="c00813761a"><path d="M 192.96875 1.972656 L 342.296875 158.039062 L 143.964844 347.8125 L -5.363281 191.746094 Z M 192.96875 1.972656 " clip-rule="nonzero"/></clipPath><clipPath id="b03a9385a9"><path d="M 192.96875 1.972656 L 382.742188 200.308594 L 184.410156 390.082031 L -5.363281 191.746094 Z M 192.96875 1.972656 " clip-rule="nonzero"/></clipPath></defs><g clip-path="url(#83c90fa567)"><g clip-path="url(#c00813761a)"><g clip-path="url(#b03a9385a9)"><path fill="#c1ff72" d="M 251.265625 314.359375 C 240.296875 320.035156 228.503906 323.96875 216.464844 326.359375 C 206.613281 328.25 196.613281 329.253906 186.601562 329.207031 C 185.269531 329.238281 183.9375 329.121094 182.605469 329.070312 C 181.277344 329 179.941406 328.96875 178.613281 328.867188 L 174.636719 328.503906 L 172.644531 328.320312 L 170.667969 328.050781 L 166.703125 327.519531 C 165.390625 327.3125 164.082031 327.054688 162.769531 326.828125 C 160.132812 326.417969 157.546875 325.777344 154.9375 325.21875 C 154.5625 325.136719 154.171875 325.050781 153.761719 324.960938 C 153.355469 324.851562 152.933594 324.734375 152.496094 324.617188 C 151.621094 324.375 150.679688 324.117188 149.679688 323.839844 C 147.660156 323.332031 145.464844 322.546875 143.046875 321.746094 C 142.445312 321.539062 141.820312 321.351562 141.199219 321.117188 C 140.582031 320.875 139.949219 320.628906 139.308594 320.375 C 138.027344 319.871094 136.695312 319.347656 135.324219 318.8125 C 132.65625 317.570312 129.75 316.394531 126.871094 314.832031 C 115.132812 309.019531 102.515625 299.828125 91.804688 288.730469 C 81.191406 277.542969 72.5625 264.53125 67.277344 252.546875 C 65.839844 249.605469 64.792969 246.648438 63.671875 243.925781 C 63.195312 242.53125 62.730469 241.179688 62.285156 239.878906 C 62.0625 239.226562 61.84375 238.585938 61.628906 237.957031 C 61.421875 237.328125 61.261719 236.695312 61.078125 236.085938 C 60.386719 233.632812 59.699219 231.402344 59.28125 229.367188 C 59.050781 228.351562 58.832031 227.402344 58.628906 226.515625 C 58.53125 226.074219 58.433594 225.648438 58.34375 225.238281 C 58.269531 224.824219 58.199219 224.429688 58.136719 224.050781 C 56.308594 214.203125 55.375 204.207031 55.492188 194.191406 C 55.71875 183.53125 57.257812 172.925781 59.707031 162.535156 C 62.628906 150.613281 67.078125 139 73.230469 128.296875 C 79.257812 117.515625 87.054688 107.734375 95.933594 99.089844 C 104.964844 90.597656 115.078125 83.242188 126.113281 77.695312 C 137.078125 72.019531 148.875 68.085938 160.914062 65.695312 C 170.761719 63.804688 180.765625 62.800781 190.777344 62.847656 C 192.109375 62.816406 193.441406 62.933594 194.769531 62.984375 C 196.101562 63.054688 197.433594 63.085938 198.761719 63.1875 L 202.742188 63.550781 L 204.734375 63.730469 L 206.710938 64.003906 L 210.671875 64.535156 C 211.988281 64.742188 213.296875 65 214.609375 65.226562 C 217.242188 65.636719 219.832031 66.277344 222.441406 66.835938 C 222.816406 66.917969 223.207031 67.003906 223.617188 67.09375 C 224.023438 67.203125 224.441406 67.320312 224.882812 67.4375 C 225.753906 67.679688 226.695312 67.9375 227.699219 68.214844 C 229.714844 68.722656 231.910156 69.507812 234.332031 70.308594 C 234.933594 70.515625 235.558594 70.703125 236.179688 70.9375 C 236.796875 71.179688 237.425781 71.425781 238.070312 71.675781 C 239.351562 72.183594 240.679688 72.703125 242.050781 73.242188 C 244.722656 74.484375 247.628906 75.660156 250.507812 77.222656 C 262.246094 83.035156 274.863281 92.226562 285.570312 103.324219 C 296.1875 114.511719 304.816406 127.523438 310.101562 139.503906 C 311.535156 142.449219 312.582031 145.40625 313.707031 148.128906 C 314.183594 149.523438 314.644531 150.871094 315.09375 152.175781 C 315.316406 152.828125 315.535156 153.46875 315.75 154.097656 C 315.957031 154.726562 316.117188 155.359375 316.296875 155.96875 C 316.988281 158.421875 317.679688 160.652344 318.097656 162.6875 C 318.328125 163.703125 318.546875 164.652344 318.746094 165.539062 C 318.847656 165.980469 318.945312 166.40625 319.035156 166.816406 C 319.109375 167.230469 319.175781 167.625 319.242188 168.003906 C 321.066406 177.851562 322.003906 187.847656 321.886719 197.859375 C 321.65625 208.523438 320.117188 219.128906 317.671875 229.519531 C 314.75 241.441406 310.300781 253.054688 304.148438 263.757812 C 298.121094 274.539062 290.324219 284.316406 281.441406 292.964844 C 272.414062 301.457031 262.300781 308.8125 251.265625 314.359375 Z M 283.640625 295.128906 L 283.648438 295.121094 C 292.714844 286.289062 300.6875 276.304688 306.859375 265.296875 C 313.160156 254.359375 317.710938 242.488281 320.660156 230.296875 L 321.945312 224.5625 C 321.945312 224.5625 322.242188 222.972656 322.695312 220.589844 C 323.210938 218.214844 323.566406 215 324.039062 211.800781 C 324.308594 208.578125 324.699219 205.367188 324.738281 202.941406 C 324.84375 200.519531 324.914062 198.90625 324.914062 198.90625 C 324.914062 198.90625 324.925781 198.5 324.929688 197.796875 C 324.929688 197.089844 324.9375 196.078125 324.941406 194.867188 C 325.019531 192.441406 324.820312 189.214844 324.691406 185.988281 C 324.578125 184.375 324.410156 182.769531 324.28125 181.257812 C 324.210938 180.503906 324.144531 179.777344 324.082031 179.082031 C 323.988281 178.394531 323.894531 177.746094 323.8125 177.144531 C 323.476562 174.746094 323.253906 173.144531 323.253906 173.144531 C 323.253906 173.144531 323.226562 172.777344 323.121094 172.238281 C 323.027344 171.695312 322.898438 170.972656 322.773438 170.25 C 322.519531 168.804688 322.265625 167.359375 322.265625 167.359375 C 322.199219 166.972656 322.132812 166.566406 322.058594 166.144531 C 321.964844 165.726562 321.867188 165.289062 321.765625 164.835938 C 321.5625 163.929688 321.34375 162.957031 321.109375 161.921875 C 320.683594 159.832031 319.984375 157.550781 319.277344 155.039062 C 319.09375 154.414062 318.929688 153.769531 318.71875 153.125 C 318.5 152.480469 318.277344 151.824219 318.050781 151.15625 C 317.59375 149.820312 317.121094 148.4375 316.632812 147.011719 C 315.492188 144.222656 314.417969 141.199219 312.953125 138.179688 C 307.546875 125.914062 298.71875 112.582031 287.855469 101.140625 C 276.902344 89.78125 263.976562 80.375 251.953125 74.433594 C 249.007812 72.839844 246.03125 71.632812 243.296875 70.367188 C 241.894531 69.816406 240.53125 69.285156 239.21875 68.769531 C 238.558594 68.511719 237.914062 68.261719 237.28125 68.015625 C 236.648438 67.777344 236.007812 67.582031 235.390625 67.371094 C 232.914062 66.554688 230.664062 65.753906 228.597656 65.238281 C 227.574219 64.960938 226.609375 64.699219 225.714844 64.453125 C 225.265625 64.332031 224.835938 64.214844 224.421875 64.105469 C 224 64.011719 223.597656 63.925781 223.214844 63.84375 C 223.214844 63.84375 221.785156 63.527344 220.351562 63.207031 C 219.632812 63.050781 218.917969 62.890625 218.378906 62.773438 C 217.847656 62.648438 217.480469 62.601562 217.480469 62.601562 C 217.480469 62.601562 215.894531 62.308594 213.507812 61.867188 C 212.914062 61.757812 212.265625 61.636719 211.585938 61.511719 C 210.894531 61.417969 210.171875 61.320312 209.421875 61.21875 C 207.917969 61.019531 206.320312 60.78125 204.714844 60.597656 C 201.496094 60.328125 198.28125 59.988281 195.855469 59.957031 C 194.644531 59.910156 193.636719 59.871094 192.929688 59.84375 C 192.222656 59.8125 191.820312 59.808594 191.820312 59.808594 C 191.820312 59.808594 190.203125 59.804688 187.78125 59.804688 C 185.355469 59.738281 182.128906 59.984375 178.898438 60.113281 C 175.683594 60.445312 172.449219 60.65625 170.058594 61.070312 C 167.65625 61.414062 166.054688 61.644531 166.054688 61.644531 L 160.269531 62.675781 C 147.960938 65.082031 135.898438 69.105469 124.699219 74.917969 C 113.425781 80.601562 103.097656 88.125 93.878906 96.792969 L 93.867188 96.796875 L 93.800781 96.859375 L 93.738281 96.925781 L 93.730469 96.933594 C 84.664062 105.765625 76.691406 115.75 70.515625 126.757812 C 64.21875 137.695312 59.667969 149.566406 56.71875 161.757812 L 55.433594 167.492188 C 55.433594 167.492188 55.132812 169.082031 54.683594 171.464844 C 54.167969 173.839844 53.8125 177.054688 53.339844 180.253906 C 53.066406 183.476562 52.679688 186.6875 52.640625 189.113281 C 52.535156 191.535156 52.464844 193.148438 52.464844 193.148438 C 52.464844 193.148438 52.449219 193.550781 52.449219 194.257812 C 52.445312 194.964844 52.441406 195.976562 52.433594 197.1875 C 52.359375 199.613281 52.558594 202.839844 52.683594 206.066406 C 52.796875 207.679688 52.964844 209.285156 53.097656 210.796875 C 53.164062 211.550781 53.234375 212.277344 53.296875 212.972656 C 53.390625 213.65625 53.480469 214.308594 53.566406 214.910156 C 53.898438 217.308594 54.121094 218.910156 54.121094 218.910156 C 54.121094 218.910156 54.152344 219.277344 54.257812 219.816406 C 54.351562 220.359375 54.476562 221.082031 54.601562 221.800781 C 54.855469 223.246094 55.109375 224.695312 55.109375 224.695312 C 55.175781 225.082031 55.246094 225.484375 55.320312 225.910156 C 55.410156 226.328125 55.507812 226.765625 55.609375 227.21875 C 55.8125 228.125 56.035156 229.097656 56.269531 230.132812 C 56.695312 232.21875 57.394531 234.503906 58.097656 237.011719 C 58.28125 237.640625 58.449219 238.285156 58.660156 238.929688 C 58.875 239.574219 59.101562 240.230469 59.324219 240.898438 C 59.78125 242.234375 60.257812 243.617188 60.746094 245.042969 C 61.886719 247.832031 62.960938 250.855469 64.425781 253.875 C 69.828125 266.140625 78.660156 279.46875 89.523438 290.914062 C 100.476562 302.269531 113.402344 311.679688 125.421875 317.621094 C 128.371094 319.214844 131.34375 320.421875 134.082031 321.6875 C 135.484375 322.238281 136.84375 322.769531 138.160156 323.285156 C 138.816406 323.542969 139.460938 323.792969 140.09375 324.039062 C 140.730469 324.277344 141.367188 324.472656 141.984375 324.683594 C 144.464844 325.5 146.710938 326.296875 148.777344 326.816406 C 149.804688 327.09375 150.765625 327.355469 151.664062 327.601562 C 152.109375 327.722656 152.542969 327.839844 152.957031 327.949219 C 153.378906 328.042969 153.777344 328.128906 154.160156 328.210938 C 154.160156 328.210938 155.59375 328.527344 157.027344 328.847656 C 157.742188 329.003906 158.460938 329.160156 158.996094 329.28125 C 159.53125 329.40625 159.894531 329.453125 159.894531 329.453125 C 159.894531 329.453125 161.484375 329.746094 163.867188 330.1875 C 164.464844 330.296875 165.109375 330.414062 165.792969 330.542969 C 166.480469 330.636719 167.207031 330.734375 167.957031 330.835938 C 169.460938 331.03125 171.058594 331.273438 172.664062 331.457031 C 175.882812 331.726562 179.097656 332.066406 181.523438 332.097656 C 182.734375 332.144531 183.742188 332.183594 184.449219 332.210938 C 185.15625 332.242188 185.558594 332.246094 185.558594 332.246094 C 185.558594 332.246094 187.175781 332.246094 189.597656 332.25 C 192.023438 332.316406 195.25 332.070312 198.480469 331.941406 C 201.695312 331.609375 204.925781 331.398438 207.320312 330.984375 C 209.722656 330.640625 211.324219 330.410156 211.324219 330.410156 L 217.105469 329.378906 C 229.417969 326.972656 241.476562 322.949219 252.679688 317.136719 C 263.953125 311.453125 274.277344 303.929688 283.5 295.261719 L 283.507812 295.253906 L 283.574219 295.195312 L 283.640625 295.128906 " fill-opacity="1" fill-rule="nonzero"/></g></g></g><g fill="#c1ff72" fill-opacity="1"><g transform="translate(193.399431, 331.886828)"><g><path d="M 1.625 -0.203125 L -0.296875 -15.859375 L 6.34375 -16.671875 C 7.0625 -16.765625 7.742188 -16.695312 8.390625 -16.46875 C 9.046875 -16.238281 9.625 -15.90625 10.125 -15.46875 C 10.625 -15.03125 11.035156 -14.515625 11.359375 -13.921875 C 11.691406 -13.328125 11.898438 -12.710938 11.984375 -12.078125 C 12.066406 -11.410156 12.023438 -10.75 11.859375 -10.09375 C 11.691406 -9.445312 11.425781 -8.851562 11.0625 -8.3125 C 10.707031 -7.78125 10.242188 -7.328125 9.671875 -6.953125 C 9.097656 -6.578125 8.453125 -6.347656 7.734375 -6.265625 L 4.03125 -5.8125 L 4.671875 -0.578125 Z M 3.703125 -8.484375 L 7.234375 -8.921875 C 7.796875 -8.984375 8.234375 -9.269531 8.546875 -9.78125 C 8.867188 -10.289062 8.984375 -10.929688 8.890625 -11.703125 C 8.835938 -12.097656 8.734375 -12.445312 8.578125 -12.75 C 8.421875 -13.050781 8.234375 -13.300781 8.015625 -13.5 C 7.796875 -13.695312 7.550781 -13.835938 7.28125 -13.921875 C 7.007812 -14.003906 6.738281 -14.023438 6.46875 -13.984375 L 3.078125 -13.578125 Z M 3.703125 -8.484375 "/></g></g></g><g fill="#c1ff72" fill-opacity="1"><g transform="translate(216.938866, 328.133709)"><g><path d="M 11.3125 -6.15625 L 12.078125 -3.578125 L 1.578125 -0.46875 L -2.90625 -15.59375 L 7.390625 -18.65625 L 8.140625 -16.078125 L 0.78125 -13.890625 L 1.875 -10.234375 L 8.25 -12.125 L 8.953125 -9.75 L 2.578125 -7.859375 L 3.75 -3.921875 Z M 11.3125 -6.15625 "/></g></g></g><g fill="#c1ff72" fill-opacity="1"><g transform="translate(239.078045, 320.714508)"><g><path d="M 6.328125 -17.671875 L 1.796875 -15.453125 L 7.546875 -3.6875 L 4.8125 -2.359375 L -0.9375 -14.125 L -5.46875 -11.90625 L -6.65625 -14.3125 L 5.140625 -20.078125 Z M 6.328125 -17.671875 "/></g></g></g><g fill="#c1ff72" fill-opacity="1"><g transform="translate(260.026355, 309.531834)"><g><path d="M 8.6875 -9.515625 L 10.25 -7.328125 L 1.328125 -0.953125 L -7.84375 -13.796875 L 0.90625 -20.046875 L 2.46875 -17.859375 L -3.78125 -13.390625 L -1.5625 -10.28125 L 3.84375 -14.15625 L 5.28125 -12.140625 L -0.125 -8.265625 L 2.265625 -4.921875 Z M 8.6875 -9.515625 "/></g></g></g><g fill="#c1ff72" fill-opacity="1"><g transform="translate(278.573716, 295.301743)"><g><path d="M 1.15625 -1.171875 L -10.0625 -12.28125 L -5.15625 -17.234375 C -4.644531 -17.742188 -4.0625 -18.109375 -3.40625 -18.328125 C -2.757812 -18.546875 -2.101562 -18.640625 -1.4375 -18.609375 C -0.769531 -18.578125 -0.125 -18.425781 0.5 -18.15625 C 1.125 -17.894531 1.660156 -17.539062 2.109375 -17.09375 C 2.835938 -16.375 3.316406 -15.539062 3.546875 -14.59375 C 3.785156 -13.644531 3.726562 -12.726562 3.375 -11.84375 L 10.125 -10.21875 L 7.703125 -7.78125 L 1.6875 -9.21875 L -0.4375 -7.0625 L 3.3125 -3.34375 Z M -2.34375 -8.953125 L 0.359375 -11.6875 C 0.554688 -11.882812 0.691406 -12.113281 0.765625 -12.375 C 0.835938 -12.644531 0.859375 -12.925781 0.828125 -13.21875 C 0.796875 -13.507812 0.703125 -13.800781 0.546875 -14.09375 C 0.390625 -14.382812 0.1875 -14.65625 -0.0625 -14.90625 C -0.332031 -15.175781 -0.613281 -15.375 -0.90625 -15.5 C -1.207031 -15.632812 -1.507812 -15.707031 -1.8125 -15.71875 C -2.125 -15.738281 -2.410156 -15.703125 -2.671875 -15.609375 C -2.941406 -15.523438 -3.175781 -15.390625 -3.375 -15.203125 L -5.984375 -12.5625 Z M -2.34375 -8.953125 "/></g></g></g><g fill="#c1ff72" fill-opacity="1"><g transform="translate(295.128049, 277.135467)"><g/></g></g><g fill="#c1ff72" fill-opacity="1"><g transform="translate(303.839335, 264.775238)"><g><path d="M 0.796875 -1.4375 L -13 -9.09375 L -11.515625 -11.765625 L -0.0625 -5.40625 L 3.84375 -12.4375 L 6.1875 -11.140625 Z M 0.796875 -1.4375 "/></g></g></g><g fill="#c1ff72" fill-opacity="1"><g transform="translate(314.276197, 244.33453)"><g><path d="M 1.71875 -12.765625 L 4.25 -11.859375 L 0.546875 -1.546875 L -14.3125 -6.859375 L -10.6875 -16.984375 L -8.15625 -16.078125 L -10.75 -8.828125 L -7.15625 -7.546875 L -4.90625 -13.8125 L -2.578125 -12.984375 L -4.828125 -6.71875 L -0.953125 -5.328125 Z M 1.71875 -12.765625 "/></g></g></g><g fill="#c1ff72" fill-opacity="1"><g transform="translate(321.36217, 222.098729)"><g><path d="M -0.390625 -12.875 L 2.25 -12.390625 L 0.296875 -1.609375 L -15.234375 -4.421875 L -13.328125 -15 L -10.6875 -14.515625 L -12.046875 -6.953125 L -8.28125 -6.28125 L -7.09375 -12.828125 L -4.65625 -12.390625 L -5.84375 -5.84375 L -1.796875 -5.109375 Z M -0.390625 -12.875 "/></g></g></g><g fill="#c1ff72" fill-opacity="1"><g transform="translate(106.696947, 240.456951)"><g><path d="M 3.585938 -106.003906 C 3.585938 -105.824219 3.585938 -105.644531 3.585938 -105.644531 C 3.765625 -105.464844 3.945312 -105.285156 4.125 -105.105469 C 4.125 -104.925781 3.945312 -104.925781 3.945312 -104.746094 C 4.304688 -104.925781 5.023438 -104.925781 5.023438 -105.105469 C 5.558594 -106.363281 6.636719 -106.003906 7.535156 -106.183594 C 7.710938 -106.183594 8.070312 -106.003906 8.25 -105.644531 C 8.96875 -104.746094 8.429688 -104.210938 7.710938 -104.03125 C 7.890625 -103.132812 7.890625 -102.238281 8.070312 -101.519531 C 6.816406 -101.339844 6.277344 -101.160156 6.636719 -100.800781 C 6.816406 -100.980469 7.175781 -101.160156 7.535156 -101.339844 C 8.070312 -100.441406 8.609375 -99.726562 9.148438 -99.1875 C 10.222656 -99.367188 11.121094 -99.546875 11.839844 -99.546875 C 12.375 -99.546875 12.914062 -99.546875 13.453125 -99.546875 C 14.886719 -99.90625 15.964844 -99.726562 16.679688 -98.109375 C 16.859375 -97.753906 17.578125 -97.214844 17.398438 -97.035156 C 16.679688 -95.78125 17.398438 -94.882812 17.398438 -93.804688 C 17.039062 -93.628906 16.859375 -93.628906 16.5 -93.628906 C 16.859375 -92.191406 17.398438 -91.117188 17.398438 -89.859375 C 17.398438 -88.246094 17.039062 -86.8125 17.21875 -85.195312 C 17.578125 -81.429688 17.039062 -77.84375 16.679688 -74.078125 C 16.5 -72.820312 16.5 -71.566406 16.859375 -70.488281 C 17.039062 -70.128906 17.039062 -69.59375 17.039062 -69.234375 C 16.859375 -68.515625 16.679688 -67.800781 16.679688 -67.261719 C 16.859375 -66.003906 17.039062 -64.75 16.320312 -63.851562 C 16.5 -63.136719 16.859375 -62.417969 16.679688 -61.878906 C 16.5 -61.34375 16.679688 -60.804688 16.679688 -60.085938 C 16.679688 -59.191406 16.5 -58.292969 16.320312 -57.214844 C 16.5 -57.039062 16.679688 -56.679688 16.859375 -56.320312 C 15.066406 -54.886719 12.554688 -55.242188 10.402344 -54.527344 C 11.839844 -54.527344 13.273438 -53.269531 13.632812 -52.015625 C 13.8125 -50.9375 13.453125 -50.042969 12.375 -49.503906 C 13.453125 -48.25 13.273438 -47.53125 11.480469 -47.171875 C 11.300781 -47.171875 10.941406 -46.8125 10.761719 -46.632812 C 10.582031 -45.378906 9.6875 -45.019531 8.789062 -44.839844 C 7.890625 -44.480469 7.710938 -44.300781 7.710938 -43.40625 C 7.890625 -42.867188 7.710938 -42.507812 8.25 -42.148438 C 8.789062 -41.792969 8.96875 -41.253906 8.609375 -40.714844 C 8.25 -40.175781 8.070312 -39.460938 7.890625 -38.5625 C 8.609375 -38.5625 9.148438 -38.5625 9.6875 -38.5625 C 10.402344 -38.5625 11.300781 -38.5625 12.015625 -38.382812 C 12.914062 -38.203125 13.8125 -37.84375 14.707031 -37.488281 C 14.886719 -37.488281 15.066406 -37.667969 15.066406 -37.84375 C 15.425781 -37.84375 15.964844 -38.203125 16.144531 -38.023438 C 16.5 -37.84375 16.5 -37.308594 16.5 -36.949219 C 16.5 -36.769531 16.5 -36.589844 16.5 -36.410156 C 16.679688 -35.691406 16.859375 -34.976562 16.859375 -34.257812 C 16.859375 -33.71875 16.859375 -33.363281 16.679688 -32.824219 C 17.039062 -32.824219 17.039062 -32.824219 17.21875 -32.824219 C 17.757812 -33.363281 18.117188 -32.824219 18.296875 -32.464844 C 18.296875 -32.464844 18.296875 -32.285156 18.296875 -32.285156 C 17.9375 -32.285156 17.578125 -32.464844 17.21875 -32.464844 C 17.039062 -31.566406 16.5 -30.671875 16.679688 -30.132812 C 17.21875 -28.160156 16.144531 -26.367188 17.039062 -24.574219 C 17.039062 -24.394531 17.039062 -24.214844 16.859375 -24.035156 C 16.859375 -22.601562 16.679688 -20.984375 17.578125 -19.730469 C 17.757812 -19.550781 17.578125 -19.191406 17.578125 -18.832031 C 17.039062 -17.21875 17.21875 -15.425781 17.578125 -13.8125 C 17.757812 -13.632812 17.757812 -13.453125 17.578125 -13.273438 C 17.21875 -12.554688 17.578125 -12.195312 17.9375 -11.660156 C 18.472656 -11.121094 19.011719 -10.582031 19.550781 -9.6875 C 19.730469 -9.328125 19.730469 -8.429688 19.910156 -7.535156 C 20.804688 -7.535156 21.523438 -6.996094 21.523438 -5.917969 C 21.703125 -5.023438 21.882812 -4.125 21.882812 -3.050781 C 21.882812 -2.691406 21.882812 -2.152344 21.882812 -1.613281 C 21.882812 -0.539062 21.703125 0.539062 21.882812 1.433594 C 22.242188 2.511719 22.777344 3.230469 23.316406 4.125 C 23.675781 3.945312 23.855469 3.765625 24.035156 3.765625 C 25.109375 3.945312 26.007812 3.585938 26.367188 2.332031 C 26.546875 1.613281 27.441406 1.792969 27.621094 2.511719 C 27.800781 3.050781 27.621094 3.765625 27.621094 4.484375 C 28.160156 4.664062 28.699219 5.203125 29.234375 5.203125 C 30.492188 5.382812 31.746094 5.382812 32.824219 5.203125 C 33.898438 5.023438 34.4375 5.203125 34.796875 6.097656 C 34.976562 6.457031 35.515625 6.636719 35.691406 6.636719 C 35.871094 6.636719 36.230469 6.277344 36.230469 5.917969 C 36.410156 5.558594 36.589844 5.023438 36.769531 4.664062 C 37.488281 5.203125 38.023438 5.382812 37.667969 6.277344 C 37.308594 6.996094 38.023438 7.175781 38.382812 6.996094 C 39.101562 6.636719 39.640625 6.816406 40.175781 7.175781 C 40.355469 7.355469 40.714844 7.535156 40.894531 7.710938 C 40.894531 7.710938 41.074219 7.710938 41.253906 7.535156 C 41.074219 7.175781 40.894531 6.816406 40.714844 6.636719 C 41.972656 6.277344 42.867188 6.457031 43.40625 7.710938 C 43.40625 6.277344 43.585938 5.023438 45.019531 4.484375 C 44.839844 4.125 44.660156 3.765625 44.480469 3.585938 C 44.839844 3.40625 45.019531 3.230469 45.199219 3.050781 C 45.378906 2.511719 45.558594 1.972656 45.738281 1.613281 C 46.097656 0.71875 46.8125 0 46.277344 -1.078125 C 45.917969 -1.433594 46.097656 -1.792969 46.097656 -2.152344 C 46.097656 -3.40625 46.277344 -4.84375 46.277344 -6.097656 C 46.277344 -7.175781 46.277344 -8.25 46.277344 -9.507812 C 46.097656 -10.402344 45.917969 -11.300781 46.277344 -12.195312 C 46.277344 -12.375 46.277344 -12.554688 46.277344 -12.734375 C 45.558594 -14.527344 46.453125 -16.5 45.558594 -18.296875 C 45.558594 -18.472656 45.738281 -18.652344 45.738281 -18.652344 C 45.917969 -19.730469 46.097656 -20.625 45.917969 -21.703125 C 45.917969 -23.316406 45.199219 -25.109375 46.097656 -26.90625 C 46.097656 -27.261719 45.917969 -27.621094 45.917969 -27.980469 C 45.917969 -28.519531 45.738281 -29.058594 45.738281 -29.414062 C 45.738281 -30.671875 45.738281 -31.925781 45.738281 -33.183594 C 45.558594 -34.4375 45.199219 -35.691406 45.558594 -36.949219 C 45.738281 -37.488281 45.917969 -37.84375 46.277344 -38.203125 C 45.917969 -38.382812 45.738281 -38.5625 45.558594 -38.5625 C 45.738281 -39.28125 45.917969 -39.820312 46.097656 -40.175781 C 46.277344 -40.355469 46.8125 -40.355469 46.992188 -40.535156 C 47.710938 -41.074219 48.605469 -41.433594 49.324219 -41.792969 C 49.683594 -41.972656 50.042969 -42.328125 50.402344 -42.507812 C 51.117188 -43.046875 51.835938 -43.765625 52.734375 -44.300781 C 54.347656 -45.378906 55.960938 -46.277344 57.574219 -47.351562 C 57.933594 -47.53125 58.472656 -47.710938 58.832031 -48.070312 C 59.726562 -48.785156 61.519531 -47.890625 61.164062 -49.683594 C 61.878906 -50.042969 62.777344 -49.324219 62.777344 -50.582031 C 62.777344 -50.757812 62.957031 -50.757812 63.136719 -50.757812 C 64.75 -51.117188 65.648438 -52.554688 66.902344 -53.449219 C 68.335938 -54.347656 69.59375 -55.421875 70.847656 -56.5 C 72.105469 -57.574219 73.179688 -58.652344 74.433594 -59.726562 C 74.792969 -60.085938 75.152344 -60.625 75.691406 -60.804688 C 76.585938 -61.164062 77.664062 -61.519531 77.84375 -62.777344 C 77.84375 -62.957031 78.023438 -63.136719 78.203125 -63.136719 C 79.996094 -64.210938 80.890625 -66.183594 82.867188 -66.902344 C 82.867188 -67.082031 83.042969 -67.261719 83.042969 -67.441406 C 83.761719 -68.15625 84.121094 -69.234375 85.375 -69.234375 C 84.839844 -70.667969 86.273438 -70.667969 86.632812 -71.386719 C 86.992188 -71.386719 87.347656 -71.207031 87.707031 -71.027344 C 88.425781 -73.71875 90.398438 -75.511719 92.730469 -77.484375 C 92.910156 -77.84375 92.371094 -79.097656 93.804688 -79.277344 C 93.984375 -79.277344 94.164062 -79.816406 94.164062 -79.996094 C 94.34375 -80.355469 94.523438 -80.890625 94.703125 -81.25 C 95.957031 -83.402344 97.214844 -85.554688 98.289062 -87.707031 C 98.648438 -88.066406 98.648438 -88.425781 98.648438 -88.964844 C 99.007812 -89.859375 99.1875 -90.9375 100.085938 -91.296875 C 100.085938 -91.832031 99.726562 -92.550781 99.90625 -92.910156 C 100.621094 -93.804688 100.441406 -94.882812 100.261719 -95.78125 C 100.261719 -96.316406 100.621094 -96.675781 100.621094 -97.035156 C 100.980469 -97.574219 101.519531 -98.109375 101.699219 -98.648438 C 101.878906 -99.546875 101.878906 -100.800781 102.058594 -101.878906 C 101.519531 -102.238281 101.160156 -102.59375 101.339844 -103.492188 C 101.519531 -104.03125 101.160156 -104.746094 100.980469 -105.285156 C 100.261719 -106.542969 100.261719 -107.617188 101.160156 -108.335938 C 101.519531 -108.695312 101.699219 -108.871094 101.878906 -109.050781 C 101.699219 -109.410156 101.339844 -109.949219 101.339844 -110.308594 C 100.980469 -111.382812 100.621094 -112.460938 99.90625 -113.175781 C 99.546875 -113.535156 99.546875 -113.894531 99.1875 -114.253906 C 98.46875 -115.507812 97.753906 -116.765625 97.035156 -118.019531 C 95.957031 -119.457031 94.34375 -120.53125 93.804688 -122.324219 C 93.804688 -122.683594 93.269531 -122.863281 93.089844 -123.042969 C 92.371094 -123.582031 91.652344 -124.117188 91.117188 -124.835938 C 90.578125 -125.734375 89.679688 -126.09375 88.785156 -126.449219 C 86.992188 -126.988281 85.195312 -127.707031 83.402344 -128.421875 C 82.148438 -127.527344 79.996094 -127.886719 79.277344 -129.5 C 78.5625 -130.753906 77.664062 -131.292969 76.585938 -131.113281 C 76.230469 -131.472656 76.050781 -132.011719 75.691406 -132.011719 C 73.898438 -132.191406 71.925781 -132.371094 69.953125 -132.191406 C 67.976562 -132.011719 65.824219 -132.550781 63.851562 -131.472656 C 63.851562 -131.292969 63.496094 -131.472656 63.316406 -131.292969 C 62.238281 -131.292969 61.164062 -131.292969 60.085938 -131.292969 C 57.039062 -130.933594 54.167969 -130.753906 51.117188 -130.398438 C 50.9375 -130.398438 50.582031 -130.398438 50.402344 -130.398438 C 49.324219 -129.320312 48.070312 -129.679688 46.8125 -129.5 C 45.558594 -129.320312 44.480469 -129.320312 43.40625 -129.320312 C 43.585938 -128.960938 43.765625 -128.960938 43.945312 -128.78125 C 44.839844 -128.78125 45.917969 -128.601562 46.8125 -128.421875 C 47.710938 -128.246094 48.429688 -128.246094 48.785156 -128.78125 C 49.503906 -128.601562 50.042969 -128.421875 50.402344 -128.601562 C 51.835938 -129.320312 53.628906 -128.960938 55.242188 -129.320312 C 55.960938 -129.5 56.679688 -129.859375 57.214844 -129.679688 C 58.652344 -129.140625 59.90625 -130.398438 61.34375 -129.859375 C 61.878906 -129.679688 62.777344 -130.039062 63.671875 -130.039062 C 63.671875 -130.21875 64.03125 -130.574219 64.210938 -130.753906 C 64.75 -130.753906 65.109375 -130.933594 65.46875 -130.933594 C 66.003906 -131.113281 67.441406 -130.21875 67.621094 -129.679688 C 67.800781 -128.421875 66.902344 -127.527344 65.46875 -128.066406 C 64.929688 -128.246094 64.570312 -128.066406 64.03125 -127.886719 C 63.316406 -127.707031 62.777344 -127.527344 62.058594 -127.527344 C 60.804688 -127.527344 59.726562 -127.707031 58.292969 -127.527344 C 57.753906 -127.347656 57.214844 -127.527344 56.679688 -127.527344 C 56.5 -127.527344 56.320312 -127.167969 56.140625 -126.988281 C 55.421875 -127.347656 55.0625 -127.707031 54.527344 -128.066406 C 53.808594 -127.527344 53.089844 -127.347656 52.375 -127.347656 C 50.9375 -127.167969 49.324219 -127.167969 48.070312 -126.628906 C 46.992188 -126.09375 46.097656 -126.269531 45.019531 -126.269531 C 45.019531 -126.449219 44.839844 -126.449219 44.660156 -126.449219 C 43.585938 -126.269531 42.6875 -125.015625 41.433594 -126.09375 C 40.175781 -125.015625 38.921875 -126.09375 38.023438 -126.628906 C 36.949219 -127.347656 35.871094 -127.886719 34.796875 -128.421875 C 34.617188 -128.78125 34.617188 -129.140625 34.617188 -129.5 C 34.078125 -129.140625 33.539062 -128.960938 33.003906 -128.601562 C 33.539062 -127.707031 33.003906 -127.527344 32.105469 -127.167969 C 31.925781 -127.527344 31.746094 -128.066406 31.566406 -128.246094 C 30.851562 -128.066406 30.492188 -127.886719 30.132812 -127.527344 C 29.59375 -128.246094 29.234375 -128.78125 28.878906 -129.320312 C 27.980469 -127.347656 26.007812 -127.347656 24.394531 -126.449219 C 24.574219 -125.554688 24.214844 -125.195312 22.957031 -125.195312 C 22.0625 -125.195312 21.164062 -124.476562 20.804688 -123.402344 C 20.625 -122.144531 20.269531 -121.25 19.371094 -120.53125 C 19.191406 -120.53125 19.191406 -120.171875 19.191406 -120.171875 C 18.832031 -118.738281 18.117188 -118.019531 16.859375 -118.019531 C 15.964844 -118.019531 15.425781 -117.660156 15.066406 -117.125 C 14.707031 -116.765625 14.527344 -116.40625 14.347656 -116.046875 C 12.375 -116.765625 11.660156 -116.40625 10.941406 -115.152344 C 10.402344 -114.074219 9.507812 -113 8.96875 -111.921875 C 8.609375 -111.023438 7.535156 -110.308594 6.277344 -109.949219 C 5.917969 -109.949219 5.738281 -109.589844 5.203125 -109.410156 C 5.558594 -108.871094 5.917969 -108.335938 6.277344 -107.617188 C 5.382812 -107.078125 4.484375 -106.542969 3.585938 -106.003906 Z M 47.171875 -76.230469 C 47.171875 -77.84375 46.453125 -79.457031 46.992188 -81.25 C 47.53125 -82.6875 48.070312 -84.660156 46.992188 -86.273438 C 46.8125 -86.273438 46.8125 -86.632812 46.8125 -86.8125 C 47.53125 -87.347656 47.710938 -88.246094 47.890625 -89.144531 C 47.890625 -89.5 48.429688 -89.859375 48.070312 -90.578125 C 48.070312 -90.757812 48.605469 -91.296875 48.785156 -91.652344 C 48.605469 -92.011719 48.429688 -92.191406 48.429688 -92.191406 C 48.429688 -93.089844 48.605469 -93.628906 48.429688 -94.164062 C 47.890625 -96.136719 48.070312 -97.035156 49.324219 -98.109375 C 48.964844 -98.46875 48.429688 -98.289062 48.605469 -99.1875 C 48.605469 -100.441406 48.964844 -101.699219 48.785156 -102.953125 C 48.605469 -104.03125 48.964844 -105.105469 48.785156 -106.003906 C 51.65625 -107.617188 54.707031 -107.4375 57.753906 -108.15625 C 58.292969 -108.15625 59.011719 -108.15625 59.726562 -108.15625 C 60.984375 -108.15625 62.417969 -108.15625 63.851562 -108.15625 C 64.03125 -108.15625 64.210938 -108.15625 64.390625 -108.15625 C 65.648438 -109.410156 67.441406 -108.15625 68.875 -108.695312 C 69.054688 -108.695312 69.414062 -108.15625 69.773438 -107.976562 C 70.308594 -107.796875 71.027344 -107.976562 70.847656 -107.078125 C 70.667969 -106.363281 70.488281 -106.003906 70.308594 -105.285156 C 70.128906 -104.566406 69.773438 -103.851562 69.773438 -102.953125 C 69.773438 -101.878906 69.054688 -100.621094 68.695312 -99.367188 C 67.621094 -99.367188 67.976562 -98.109375 67.441406 -97.753906 C 66.722656 -97.214844 65.824219 -97.214844 65.289062 -96.675781 C 64.929688 -96.136719 64.210938 -95.421875 64.570312 -94.523438 C 65.109375 -93.269531 64.390625 -92.371094 63.671875 -91.652344 C 62.957031 -90.9375 62.417969 -90.578125 62.957031 -89.5 C 63.316406 -88.964844 62.777344 -88.785156 62.417969 -88.785156 C 61.878906 -88.964844 61.164062 -89.324219 61.164062 -88.066406 C 61.164062 -87.886719 60.625 -87.707031 60.445312 -87.527344 C 60.085938 -87.171875 59.726562 -86.8125 59.546875 -86.453125 C 59.367188 -86.453125 59.367188 -86.273438 59.367188 -86.273438 C 57.753906 -85.914062 57.753906 -83.761719 56.140625 -83.582031 C 55.601562 -83.402344 55.0625 -82.867188 55.0625 -82.328125 C 54.886719 -81.609375 54.527344 -81.25 53.988281 -81.070312 C 52.554688 -80.890625 52.015625 -79.636719 51.117188 -78.917969 C 50.042969 -77.84375 48.605469 -76.945312 47.53125 -76.050781 C 47.351562 -76.050781 47.171875 -76.050781 47.171875 -76.230469 Z M 71.746094 -129.140625 C 71.207031 -127.886719 69.953125 -128.960938 69.414062 -128.246094 C 69.054688 -128.601562 68.695312 -128.960938 68.335938 -129.320312 C 69.234375 -130.398438 70.128906 -130.21875 71.746094 -129.140625 Z M 71.746094 -129.140625 "/></g></g></g><g fill="#c1ff72" fill-opacity="1"><g transform="translate(201.754736, 240.456951)"><g><path d="M 3.585938 -57.039062 C 3.585938 -56.859375 3.585938 -56.679688 3.585938 -56.679688 C 3.945312 -56.679688 4.125 -56.679688 4.664062 -56.679688 C 4.125 -55.78125 4.304688 -55.242188 4.664062 -54.527344 C 4.84375 -54.167969 4.84375 -53.808594 4.84375 -53.449219 C 4.84375 -52.734375 4.664062 -51.835938 4.664062 -51.117188 C 4.484375 -49.863281 4.84375 -48.785156 5.203125 -47.53125 C 5.558594 -46.8125 5.023438 -46.632812 4.664062 -46.632812 C 4.664062 -45.738281 4.484375 -45.019531 4.664062 -44.300781 C 4.664062 -43.40625 5.203125 -42.867188 4.664062 -41.972656 C 5.558594 -41.613281 4.84375 -40.714844 5.023438 -39.996094 C 5.382812 -39.460938 5.382812 -38.5625 5.558594 -37.84375 C 5.203125 -37.488281 5.023438 -36.949219 5.203125 -36.230469 C 5.558594 -34.796875 5.738281 -33.363281 5.558594 -31.925781 C 5.382812 -29.953125 5.917969 -28.339844 6.457031 -26.367188 C 6.816406 -25.648438 6.816406 -24.929688 6.816406 -24.214844 C 6.996094 -23.675781 6.816406 -23.136719 6.996094 -22.777344 C 6.996094 -22.242188 7.890625 -20.269531 7.890625 -19.910156 C 8.25 -18.832031 8.429688 -17.578125 8.96875 -16.5 C 9.6875 -15.425781 10.042969 -14.167969 10.222656 -12.914062 C 10.402344 -12.375 10.582031 -11.660156 10.402344 -11.480469 C 9.6875 -10.582031 10.582031 -10.402344 10.941406 -10.042969 C 11.300781 -9.863281 11.839844 -10.042969 12.375 -10.042969 C 12.195312 -9.6875 12.015625 -9.507812 12.015625 -9.328125 C 12.015625 -8.609375 11.839844 -7.710938 12.195312 -7.355469 C 12.914062 -6.636719 13.632812 -5.917969 13.992188 -5.023438 C 13.992188 -4.84375 14.347656 -4.84375 14.527344 -4.664062 C 15.964844 -3.765625 17.398438 -3.050781 18.117188 -1.253906 C 18.472656 -0.179688 19.550781 0.539062 20.269531 1.433594 C 20.984375 2.691406 22.421875 2.511719 23.136719 3.585938 C 23.855469 4.304688 24.753906 4.84375 25.648438 5.023438 C 26.367188 5.382812 27.261719 5.382812 28.160156 5.558594 C 29.234375 5.738281 30.3125 5.917969 31.386719 6.277344 C 31.03125 5.738281 30.671875 5.382812 30.3125 4.84375 C 30.671875 4.125 31.03125 3.40625 32.105469 4.304688 C 32.105469 4.484375 32.464844 4.484375 32.644531 4.484375 C 33.898438 4.664062 35.335938 4.84375 36.410156 5.738281 C 36.589844 5.738281 36.769531 5.917969 36.949219 5.738281 C 37.84375 5.738281 38.5625 6.277344 39.101562 6.816406 C 39.460938 6.996094 39.996094 7.355469 40.535156 7.710938 C 40.535156 6.996094 40.355469 6.636719 40.355469 6.277344 C 41.972656 6.097656 43.945312 6.457031 45.199219 7.175781 C 45.378906 7.175781 45.917969 7.175781 46.097656 6.996094 C 46.453125 6.277344 46.8125 6.097656 47.53125 6.277344 C 48.605469 6.636719 49.683594 6.996094 50.9375 7.355469 C 50.757812 6.816406 50.582031 6.457031 50.402344 6.097656 C 51.65625 5.558594 52.910156 5.023438 54.167969 4.304688 C 54.167969 3.585938 55.0625 3.585938 55.601562 3.585938 C 57.394531 3.765625 58.472656 2.691406 59.726562 1.972656 C 59.011719 1.253906 59.011719 0.71875 59.90625 0.179688 C 60.984375 -0.539062 62.417969 -0.71875 63.136719 -2.152344 C 63.671875 -3.230469 65.109375 -3.945312 66.003906 -4.664062 C 66.722656 -5.203125 67.621094 -5.738281 68.15625 -6.277344 C 67.976562 -6.636719 67.800781 -6.996094 67.621094 -7.355469 C 67.976562 -7.535156 68.15625 -7.710938 68.515625 -7.890625 C 68.695312 -8.070312 69.054688 -8.429688 69.414062 -8.96875 C 70.667969 -10.761719 72.820312 -12.195312 73.539062 -14.527344 C 73.71875 -15.066406 74.433594 -15.425781 74.972656 -15.785156 C 75.332031 -16.144531 75.871094 -16.5 76.230469 -16.859375 C 76.585938 -17.039062 76.945312 -17.398438 77.304688 -17.757812 C 77.664062 -18.472656 78.023438 -19.011719 78.203125 -19.730469 C 78.382812 -19.730469 78.5625 -19.730469 78.5625 -19.910156 C 77.664062 -21.164062 76.765625 -22.601562 76.050781 -24.035156 C 76.765625 -24.753906 77.484375 -25.828125 78.203125 -26.726562 C 78.203125 -26.726562 78.203125 -26.726562 78.203125 -26.90625 C 76.945312 -26.007812 75.691406 -25.46875 74.433594 -24.753906 C 74.257812 -24.574219 73.898438 -24.574219 73.539062 -24.574219 C 72.640625 -24.394531 72.28125 -23.136719 71.207031 -23.496094 C 70.847656 -22.601562 70.128906 -22.242188 69.234375 -22.0625 C 68.515625 -21.882812 67.976562 -20.984375 67.621094 -20.449219 C 66.183594 -18.652344 64.390625 -17.398438 62.417969 -16.320312 C 62.238281 -18.117188 62.777344 -19.011719 64.210938 -19.730469 C 64.570312 -19.910156 64.75 -20.449219 64.929688 -20.804688 C 64.929688 -20.984375 65.109375 -21.164062 65.109375 -21.34375 C 65.46875 -21.882812 65.824219 -22.242188 66.003906 -22.777344 C 66.542969 -23.675781 67.082031 -24.574219 67.621094 -25.648438 C 66.902344 -26.007812 66.183594 -25.46875 65.824219 -25.109375 C 65.109375 -23.855469 64.210938 -22.957031 62.777344 -22.777344 C 62.417969 -22.601562 62.058594 -22.242188 61.878906 -22.0625 C 61.519531 -21.882812 61.34375 -21.523438 61.164062 -21.34375 C 60.265625 -20.449219 59.367188 -19.910156 57.933594 -20.449219 C 57.574219 -20.449219 56.859375 -20.269531 56.5 -19.910156 C 55.0625 -19.011719 53.628906 -17.757812 52.195312 -16.859375 C 51.835938 -16.679688 51.476562 -16.679688 51.296875 -16.320312 C 50.9375 -15.605469 50.042969 -15.425781 49.324219 -15.066406 C 48.429688 -14.527344 47.351562 -15.246094 47.351562 -15.964844 C 47.351562 -16.679688 47.53125 -17.21875 47.53125 -17.757812 C 45.738281 -17.039062 43.945312 -16.679688 43.226562 -14.886719 C 43.046875 -14.886719 42.867188 -15.066406 42.6875 -14.886719 C 41.792969 -14.527344 40.894531 -14.167969 39.996094 -14.886719 C 39.996094 -14.886719 39.820312 -14.707031 39.640625 -14.707031 C 38.023438 -14.527344 37.308594 -15.066406 36.949219 -16.859375 C 36.769531 -17.398438 36.769531 -18.117188 36.589844 -18.652344 C 36.230469 -20.269531 35.335938 -21.523438 35.515625 -23.316406 C 35.515625 -23.496094 35.515625 -23.675781 35.335938 -23.855469 C 34.976562 -24.574219 34.796875 -25.109375 34.4375 -25.46875 C 35.515625 -26.1875 35.515625 -26.367188 34.976562 -27.261719 C 34.617188 -27.621094 34.617188 -27.980469 34.4375 -28.519531 C 34.257812 -29.414062 34.078125 -30.3125 33.898438 -31.03125 C 33.898438 -31.566406 33.539062 -31.925781 33.71875 -32.285156 C 33.71875 -33.183594 33.898438 -34.257812 33.898438 -35.15625 C 33.898438 -35.691406 34.257812 -36.410156 33.539062 -36.949219 C 33.363281 -36.949219 33.363281 -37.488281 33.363281 -37.84375 C 33.539062 -39.28125 33.71875 -40.714844 33.898438 -42.328125 C 33.898438 -42.6875 33.71875 -43.226562 33.539062 -43.945312 C 33.71875 -44.125 33.898438 -44.480469 34.257812 -45.019531 C 34.078125 -45.019531 34.078125 -45.019531 33.898438 -45.019531 C 33.71875 -45.378906 33.363281 -45.738281 33.363281 -46.277344 C 33.363281 -47.171875 33.539062 -48.070312 33.71875 -48.785156 C 34.078125 -48.964844 34.4375 -48.964844 34.976562 -49.144531 C 34.4375 -49.683594 34.078125 -50.042969 33.71875 -50.402344 C 33.898438 -51.117188 34.257812 -52.015625 34.078125 -52.554688 C 33.71875 -53.808594 34.257812 -54.347656 35.335938 -54.347656 C 34.976562 -55.78125 34.4375 -56.859375 34.257812 -58.113281 C 34.078125 -58.652344 34.257812 -59.191406 34.4375 -59.546875 C 35.15625 -60.445312 35.335938 -61.519531 34.617188 -62.597656 C 34.617188 -62.597656 34.4375 -62.777344 34.4375 -62.777344 C 34.4375 -63.851562 34.4375 -64.929688 34.4375 -65.824219 C 34.4375 -66.183594 34.617188 -66.542969 34.796875 -66.902344 C 34.976562 -67.441406 35.335938 -68.335938 35.15625 -68.695312 C 34.617188 -69.953125 35.515625 -70.488281 35.871094 -71.386719 C 35.871094 -71.566406 35.335938 -71.925781 35.335938 -72.105469 C 35.335938 -72.640625 35.335938 -73.179688 34.976562 -73.71875 C 34.796875 -73.71875 34.976562 -74.078125 34.976562 -74.078125 C 35.871094 -74.792969 35.515625 -76.050781 36.410156 -76.585938 C 36.050781 -77.304688 35.335938 -77.84375 35.335938 -78.382812 C 35.515625 -78.917969 34.976562 -79.996094 36.050781 -80.175781 C 35.871094 -80.714844 35.15625 -81.070312 35.871094 -81.609375 C 36.050781 -81.609375 36.230469 -82.148438 36.050781 -82.507812 C 35.691406 -83.222656 35.871094 -83.941406 36.230469 -84.660156 C 36.589844 -85.195312 37.308594 -85.734375 37.84375 -86.09375 C 37.488281 -87.171875 37.128906 -88.066406 36.949219 -88.964844 C 36.769531 -89.324219 37.308594 -89.859375 37.128906 -90.21875 C 36.589844 -91.476562 37.128906 -92.550781 37.488281 -93.804688 C 37.667969 -94.523438 37.84375 -95.421875 36.949219 -96.136719 C 37.667969 -96.855469 37.667969 -97.753906 37.308594 -98.648438 C 37.128906 -98.828125 36.949219 -99.367188 36.949219 -99.726562 C 37.667969 -101.339844 37.488281 -103.132812 37.308594 -104.925781 C 37.308594 -106.542969 37.308594 -107.976562 36.410156 -109.589844 C 36.230469 -110.128906 36.230469 -111.023438 36.230469 -111.921875 C 35.691406 -112.101562 35.15625 -112.460938 34.4375 -112.640625 C 33.71875 -112.820312 33.003906 -113 32.285156 -113.175781 C 32.285156 -113.175781 32.464844 -113.355469 32.464844 -113.355469 C 32.105469 -114.253906 31.925781 -115.152344 31.386719 -115.6875 C 30.492188 -116.40625 29.414062 -116.945312 28.339844 -117.484375 C 27.621094 -117.839844 26.90625 -118.199219 26.1875 -118.558594 C 25.648438 -118.917969 24.394531 -119.097656 23.675781 -118.917969 C 22.421875 -118.558594 21.523438 -117.660156 20.089844 -118.019531 C 19.550781 -118.199219 19.011719 -118.199219 18.832031 -118.917969 C 18.832031 -119.277344 17.9375 -119.636719 17.9375 -119.457031 C 17.21875 -118.738281 16.679688 -118.019531 16.144531 -117.304688 C 15.964844 -117.125 15.785156 -116.945312 15.605469 -116.765625 C 15.066406 -115.867188 14.167969 -115.867188 13.273438 -115.6875 C 12.195312 -115.152344 10.761719 -115.152344 10.941406 -113.355469 C 10.941406 -113.355469 10.761719 -113.175781 10.582031 -113 C 9.863281 -112.460938 9.507812 -111.5625 9.148438 -110.488281 C 8.96875 -110.128906 8.789062 -109.589844 8.429688 -109.230469 C 7.710938 -108.335938 6.996094 -107.617188 7.710938 -106.542969 C 7.890625 -106.183594 7.710938 -105.824219 7.710938 -105.464844 C 7.710938 -105.105469 7.535156 -104.746094 7.535156 -104.566406 C 8.25 -103.3125 6.996094 -102.058594 7.890625 -100.800781 C 7.890625 -100.621094 7.710938 -100.441406 7.710938 -100.261719 C 7.175781 -99.546875 6.996094 -98.648438 8.25 -98.289062 C 7.890625 -97.753906 7.710938 -97.214844 7.355469 -96.675781 C 6.996094 -96.136719 6.636719 -95.421875 6.996094 -94.523438 C 7.175781 -93.804688 6.636719 -93.089844 6.457031 -92.371094 C 6.457031 -92.191406 6.457031 -91.832031 6.457031 -91.652344 C 6.457031 -91.117188 6.457031 -90.757812 6.457031 -90.21875 C 6.457031 -89.5 6.636719 -88.964844 6.636719 -88.246094 C 6.816406 -87.527344 6.996094 -87.171875 6.457031 -86.632812 C 6.277344 -86.453125 6.277344 -86.09375 6.097656 -85.734375 C 5.917969 -84.480469 5.738281 -83.222656 5.558594 -81.789062 C 5.558594 -81.429688 5.558594 -81.070312 5.382812 -80.890625 C 5.023438 -80.355469 5.203125 -79.816406 5.558594 -79.636719 C 6.277344 -78.917969 5.917969 -78.203125 5.738281 -77.484375 C 5.558594 -76.765625 5.023438 -76.230469 4.664062 -75.691406 C 4.664062 -75.332031 4.304688 -75.152344 3.945312 -74.792969 C 5.023438 -74.433594 5.023438 -73.898438 4.84375 -73 C 4.664062 -72.28125 4.664062 -71.207031 5.023438 -70.488281 C 5.382812 -69.59375 5.203125 -69.234375 4.664062 -68.695312 C 4.304688 -68.335938 4.125 -68.15625 3.765625 -67.800781 C 4.304688 -67.261719 4.84375 -67.082031 5.203125 -66.722656 C 5.738281 -66.003906 4.84375 -66.003906 4.484375 -65.648438 C 5.203125 -64.929688 5.382812 -64.210938 5.023438 -63.316406 C 4.84375 -62.417969 4.304688 -61.519531 4.664062 -60.625 C 4.84375 -60.625 4.664062 -60.445312 4.664062 -60.265625 C 4.484375 -59.546875 3.945312 -58.652344 4.125 -58.292969 C 5.023438 -57.214844 4.125 -57.214844 3.585938 -57.039062 Z M 3.585938 -57.039062 "/></g></g></g></svg>